<svg id="Layer_1" data-name="Layer 1" xmlns="http://www.w3.org/2000/svg" viewBox="0 0 512.01 490.68"><defs><style>.cls-1{fill:#fff;}</style></defs><title>airplane-white</title><path class="cls-1" d="M437.33,426.67a16.19,16.19,0,0,1-5.16-.86l-421.33-144a16,16,0,0,1-2.26-29.33l480-250.67a16,16,0,0,1,23.25,16.56L453.16,413a16,16,0,0,1-15.83,13.64ZM56.45,263.57,424.32,389.31,475.54,44.74Z" transform="translate(0 0.01)"/><path class="cls-1" d="M202.67,490.67a16,16,0,0,1-16-16v-144A16.12,16.12,0,0,1,191,319.74L484.29,5.08a16,16,0,0,1,23.42,21.84l-289,310v88.92l53.39-72.69a16,16,0,0,1,25.8,19l-82.29,112a16.09,16.09,0,0,1-12.9,6.51Z" transform="translate(0 0.01)"/></svg>