<svg id="Capa_1" data-name="Capa 1" xmlns="http://www.w3.org/2000/svg" viewBox="0 0 55 55"><defs><style>.cls-1{fill:#fff;}</style></defs><title>exit</title><path class="cls-1" d="M54.92,24.38a.92.92,0,0,0,0-.76.93.93,0,0,0-.21-.33l-12-12a1,1,0,0,0-1.42,1.42L51.59,23H36V1a1,1,0,0,0-1-1H1L.91,0a.9.9,0,0,0-.16,0A.85.85,0,0,0,.49.16L.41.19A.6.6,0,0,0,.33.27a.12.12,0,0,0,0,0A1,1,0,0,0,.09.59s0,0,0,.06A1,1,0,0,0,0,1V47a1,1,0,0,0,.07.35l.06.11a.8.8,0,0,0,.13.19l.09.09a.8.8,0,0,0,.19.13l.11.06,0,0,22,7a1,1,0,0,0,.3,0,1,1,0,0,0,.59-.19A1,1,0,0,0,24,54V48H35a1,1,0,0,0,1-1V25H51.59L41.29,35.29a1,1,0,0,0,0,1.42,1,1,0,0,0,1.42,0l12-12A1,1,0,0,0,54.92,24.38ZM22,52.63,2,46.27V2.37L22,8.73ZM34,46H24V8a1,1,0,0,0-.7-1L7.44,2H34Z" transform="translate(0 0)"/><path class="cls-1" d="M20.37,31.07l-5-2a1,1,0,0,0-.74,1.86l5,2A1,1,0,0,0,20,33a1,1,0,0,0,.37-1.93Z" transform="translate(0 0)"/></svg>