<svg id="Capa_1" data-name="Capa 1" xmlns="http://www.w3.org/2000/svg" viewBox="0 0 50 52.08"><defs><style>.cls-1{fill:#fff;}</style></defs><title>filter</title><path class="cls-1" d="M51,7c0-4.6-12.58-7-25-7S1,2.4,1,7a3.53,3.53,0,0,0,1.8,2.78L20,33.32V50.85a1.07,1.07,0,0,0,.65,1l.69.25L32,41.41V33.33L49.22,9.81h0A3.56,3.56,0,0,0,51,7ZM26,2c14,0,23,3,23,5,0,.42-.4.88-1.14,1.35h0l0,0C45,10.15,37.13,12,26,12S7,10.15,4.2,8.36l0,0-.41-.25C3.31,7.71,3,7.34,3,7,3,5,12,2,26,2Zm4,38.59-8,8V34h8ZM30.53,32h-9L6.61,11.57C11.44,13.17,18.76,14,26,14s14.6-.83,19.42-2.43Z" transform="translate(-1.04 0)"/></svg>