<svg id="Capa_1" data-name="Capa 1" xmlns="http://www.w3.org/2000/svg" viewBox="0 0 423.72 423.72"><defs><style>.cls-1{fill:#1d1d1b;}.cls-2{fill:#24195d;}.cls-3{fill:#d3072a;}.cls-4{fill:none;}.cls-5{fill:#91cece;}.cls-6{fill:#d62121;}</style></defs><title>menu-closed</title><path class="cls-1" d="M469.63,459V247.14H390.18l3.7-11.1a31.77,31.77,0,0,0-30.18-41.87h0A31.77,31.77,0,0,0,333.52,236l3.7,11.1H257.77v79.45l11.09-3.7a31.77,31.77,0,0,1,41.87,30.18h0a31.79,31.79,0,0,1-41.87,30.18l-11.09-3.7V459Z" transform="translate(-45.9 -35.28)"/><path class="cls-2" d="M257.77,247.14v79.45l11.09-3.7a31.77,31.77,0,0,1,41.87,30.18h0a31.79,31.79,0,0,1-41.87,30.18l-11.09-3.7V459H45.9V247.14h79.45l-3.7,11.09a31.79,31.79,0,0,0,20,40.23,31.47,31.47,0,0,0,10.13,1.64h0A31.77,31.77,0,0,0,182,258.23l-3.69-11.09Z" transform="translate(-45.9 -35.28)"/><path class="cls-3" d="M469.63,247.14H390.18l3.7-11.1a31.77,31.77,0,0,0-30.18-41.87h0A31.77,31.77,0,0,0,333.52,236l3.7,11.1H257.77V167.69l11.09,3.7a31.79,31.79,0,0,0,40.23-20,31.43,31.43,0,0,0,1.64-10.13h0A31.79,31.79,0,0,0,268.86,111l-11.09,3.7V35.28H469.63Z" transform="translate(-45.9 -35.28)"/><path class="cls-4" d="M45.9,35.28V247.14h79.45l-3.7,11.09a31.79,31.79,0,0,0,20,40.23,31.47,31.47,0,0,0,10.13,1.64h0A31.79,31.79,0,0,0,182,258.23l-3.7-11.09h79.44V167.69l11.1,3.7a31.77,31.77,0,0,0,41.87-30.18h0A31.79,31.79,0,0,0,268.86,111l-11.1,3.7V35.28Z" transform="translate(-45.9 -35.28)"/><path class="cls-5" d="M257.77,382.73l3.53-2-3.53-1.19Z" transform="translate(-45.9 -35.28)"/><path class="cls-6" d="M423.57,247.14h46.06V171A351.74,351.74,0,0,1,423.57,247.14Z" transform="translate(-45.9 -35.28)"/></svg>