<svg id="Layer_1" data-name="Layer 1" xmlns="http://www.w3.org/2000/svg" viewBox="0 0 574.56 796.12"><defs><style>.cls-1{fill:#035a2a;}.cls-2{fill:#2a2559;}.cls-3{fill:#d3112c;}.cls-4{fill:#fff;}.cls-5{fill:#92cfcf;}</style></defs><title>menu-open-v-2</title><path class="cls-1" d="M586.24,820.88V609H506.79l3.7-11.1a31.77,31.77,0,0,0-30.18-41.86h0a31.77,31.77,0,0,0-31.82,31.72h0a31.47,31.47,0,0,0,1.64,10.13l3.7,11.1H374.38v79.45l11.1-3.7A31.81,31.81,0,0,1,427.35,715h0a31.78,31.78,0,0,1-31.74,31.82h0a31.38,31.38,0,0,1-10.13-1.64l-11.1-3.7v79.45Z" transform="translate(-11.68 -24.76)"/><path class="cls-2" d="M223.55,482.16v79.45l11.09-3.7a31.78,31.78,0,0,1,41.87,30.18h0a31.79,31.79,0,0,1-41.87,30.18l-11.09-3.7V694H11.68V482.16H91.13l-3.7,11.09a31.79,31.79,0,0,0,20,40.23,31.2,31.2,0,0,0,10.13,1.64h0a31.77,31.77,0,0,0,30.22-41.87l-3.69-11.09Z" transform="translate(-11.68 -24.76)"/><path class="cls-3" d="M586.24,280.72H506.79l3.7-11.09a31.79,31.79,0,0,0-20.05-40.23,31.47,31.47,0,0,0-10.13-1.64h0a31.77,31.77,0,0,0-30.18,41.87l3.7,11.09H374.38V201.27l11.09,3.7a31.77,31.77,0,0,0,41.87-30.18h0a31.79,31.79,0,0,0-41.87-30.18l-11.09,3.7V68.86H586.24Z" transform="translate(-11.68 -24.76)"/><path class="cls-4" d="M11.69,24.76V236.62H91.14l-3.7,11.1a31.77,31.77,0,0,0,30.18,41.87h0a31.79,31.79,0,0,0,30.17-41.87l-3.7-11.1h79.44V157.17l11.1,3.7a31.77,31.77,0,0,0,41.87-30.18h0a31.79,31.79,0,0,0-41.87-30.18l-11.1,3.7V24.76Z" transform="translate(-11.68 -24.76)"/><path class="cls-5" d="M297.32,548.08l3.53-2-3.53-1.19Z" transform="translate(-11.68 -24.76)"/></svg>