<svg id="Capa_1" data-name="Capa 1" xmlns="http://www.w3.org/2000/svg" viewBox="0 0 496.69 508"><defs><style>.cls-1{fill:#1d1d1b;}.cls-2{fill:#24195d;}.cls-3{fill:#d3072a;}.cls-4{fill:none;}.cls-5{fill:#91cece;}</style></defs><title>menu-open</title><path class="cls-1" d="M505.63,490V278.14H426.18l3.7-11.1a31.77,31.77,0,0,0-30.18-41.87h0A31.77,31.77,0,0,0,369.52,267l3.7,11.1H293.77v79.45l11.09-3.7a31.77,31.77,0,0,1,41.87,30.18h0a31.79,31.79,0,0,1-41.87,30.18l-11.09-3.7V490Z" transform="translate(-8.94)"/><path class="cls-2" d="M234.77,296.14v79.45l11.09-3.7a31.77,31.77,0,0,1,41.87,30.18h0a31.79,31.79,0,0,1-41.87,30.18l-11.09-3.7V508H22.9V296.14h79.45l-3.7,11.09a31.79,31.79,0,0,0,20,40.23,31.47,31.47,0,0,0,10.13,1.64h0A31.77,31.77,0,0,0,159,307.23l-3.69-11.09Z" transform="translate(-8.94)"/><path class="cls-3" d="M485.63,220.86H406.18l3.7-11.09a31.79,31.79,0,0,0-20.05-40.23,31.43,31.43,0,0,0-10.13-1.64h0a31.77,31.77,0,0,0-30.18,41.87l3.7,11.09H273.77V141.41l11.09,3.7a31.77,31.77,0,0,0,41.87-30.18h0a31.79,31.79,0,0,0-41.87-30.18l-11.09,3.7V9H485.63Z" transform="translate(-8.94)"/><path class="cls-4" d="M8.94,0V211.86H88.39L84.69,223a31.77,31.77,0,0,0,20,40.22,31.44,31.44,0,0,0,10.13,1.65h0A31.77,31.77,0,0,0,145.05,223l-3.7-11.1H220.8V132.41l11.1,3.7a31.77,31.77,0,0,0,41.87-30.18h0A31.79,31.79,0,0,0,231.9,75.75l-11.1,3.7V0Z" transform="translate(-8.94)"/><path class="cls-5" d="M257.77,382.73l3.53-2-3.53-1.19Z" transform="translate(-8.94)"/></svg>