<svg id="Layer_1" data-name="Layer 1" xmlns="http://www.w3.org/2000/svg" viewBox="0 0 514.73 575.17"><defs><style>.cls-1{fill:#035a2a;}.cls-2{fill:#2a2559;}.cls-3{fill:#d3112c;}.cls-4{fill:#fff;}.cls-5{fill:#92cfcf;}</style></defs><title>menu-open</title><path class="cls-1" d="M517.83,703.33V491.47H438.38l3.7-11.1A31.78,31.78,0,0,0,411.9,438.5h0a31.76,31.76,0,0,0-30.18,41.83l3.7,11.1H306v79.45l11.09-3.7a31.77,31.77,0,0,1,40.22,20,32.22,32.22,0,0,1,1.65,10.16h0a31.79,31.79,0,0,1-41.87,30.18L306,623.84v79.49Z" transform="translate(-41.13 -128.16)"/><path class="cls-2" d="M253,438.5V518l11.09-3.7A31.75,31.75,0,0,1,306,544.43h0a31.79,31.79,0,0,1-41.87,30.18L253,570.91v79.45H41.13V438.5h79.45l-3.7,11.09a31.8,31.8,0,0,0,20,40.23A31.47,31.47,0,0,0,147,491.46h0a31.77,31.77,0,0,0,30.22-41.87l-3.69-11.09Z" transform="translate(-41.13 -128.16)"/><path class="cls-3" d="M555.87,375.5H476.41l3.71-11.1a31.78,31.78,0,0,0-30.18-41.87h0a31.77,31.77,0,0,0-31.82,31.73,32.12,32.12,0,0,0,1.63,10.1l3.7,11.1H344V296.05l11.09,3.7a31.79,31.79,0,0,0,40.23-20A31.44,31.44,0,0,0,397,269.62h0a31.8,31.8,0,0,0-41.88-30.26L344,243.06V163.64H555.87Z" transform="translate(-41.13 -128.16)"/><path class="cls-4" d="M79.19,128.16V340h79.45l-3.7,11.09a31.8,31.8,0,0,0,20,40.23A31.47,31.47,0,0,0,185.07,393h0a31.77,31.77,0,0,0,30.22-41.87L211.59,340H291V260.57l11.1,3.7A31.75,31.75,0,0,0,344,234.09h0a31.8,31.8,0,0,0-41.85-30.21l-11.1,3.7V128.16Z" transform="translate(-41.13 -128.16)"/><path class="cls-5" d="M298,556.09l3.53-2L298,552.9Z" transform="translate(-41.13 -128.16)"/></svg>