<svg id="Capa_1" data-name="Capa 1" xmlns="http://www.w3.org/2000/svg" viewBox="0 0 507.1 501.69"><defs><style>.cls-1{fill:#005924;}.cls-2{fill:#24195d;}.cls-3{fill:#d3072a;}.cls-4{fill:#fff;}.cls-5{fill:#91cece;}</style></defs><title>menu-open</title><path class="cls-1" d="M512,490.48V278.62H432.55l3.7-11.1A31.78,31.78,0,0,0,416.2,227.3a31.43,31.43,0,0,0-10.13-1.64h0a31.77,31.77,0,0,0-31.82,31.73,31.43,31.43,0,0,0,1.64,10.13l3.7,11.1H300.14v79.45l11.1-3.7a31.8,31.8,0,0,1,41.87,30.18h0a31.78,31.78,0,0,1-31.74,31.82,31.43,31.43,0,0,1-10.13-1.64l-11.1-3.7v79.45Z" transform="translate(-4.9 -4.31)"/><path class="cls-2" d="M222.77,294.14v79.45l11.09-3.7a31.77,31.77,0,0,1,41.87,30.18h0a31.79,31.79,0,0,1-41.87,30.18l-11.09-3.7V506H10.9V294.14H90.35l-3.7,11.09a31.79,31.79,0,0,0,20,40.23,31.47,31.47,0,0,0,10.13,1.64h0A31.77,31.77,0,0,0,147,305.23l-3.69-11.09Z" transform="translate(-4.9 -4.31)"/><path class="cls-3" d="M507.63,216.17H428.18l3.7-11.09a31.79,31.79,0,0,0-20.05-40.23,31.43,31.43,0,0,0-10.13-1.64h0a31.77,31.77,0,0,0-30.18,41.87l3.7,11.09H295.77V136.72l11.09,3.7a31.77,31.77,0,0,0,41.87-30.18h0a31.79,31.79,0,0,0-41.87-30.18l-11.09,3.7V4.31H507.63Z" transform="translate(-4.9 -4.31)"/><path class="cls-4" d="M4.9,4.31V216.17H84.35l-3.7,11.1a31.77,31.77,0,0,0,30.18,41.87h0A31.79,31.79,0,0,0,141,227.27l-3.7-11.1h79.44V136.72l11.1,3.7a31.77,31.77,0,0,0,41.87-30.18h0a31.79,31.79,0,0,0-41.87-30.18l-11.1,3.7V4.31Z" transform="translate(-4.9 -4.31)"/><path class="cls-5" d="M257.77,382.73l3.53-2-3.53-1.19Z" transform="translate(-4.9 -4.31)"/></svg>